<!DOCTYPE svg PUBLIC "-//W3C//DTD SVG 1.1//EN" "http://www.w3.org/Graphics/SVG/1.1/DTD/svg11.dtd">
<!-- Uploaded to: SVG Repo, www.svgrepo.com, Transformed by: SVG Repo Mixer Tools -->
<svg fill="#ffffff" height="800px" width="800px" version="1.1" id="Layer_1" xmlns="http://www.w3.org/2000/svg" xmlns:xlink="http://www.w3.org/1999/xlink" viewBox="0 0 512.001 512.001" xml:space="preserve" stroke="#ffffff">
<g id="SVGRepo_bgCarrier" stroke-width="0"/>
<g id="SVGRepo_tracerCarrier" stroke-linecap="round" stroke-linejoin="round"/>
<g id="SVGRepo_iconCarrier"> <g> <g> <path d="M434.674,95.532l-21.28,29.291c8.512,6.184,16.408,13.281,23.469,21.096l26.861-24.275 C454.983,111.972,445.21,103.187,434.674,95.532z"/> </g> </g> <g> <g> <path d="M363.611,63.913l-7.476,35.425c10.277,2.169,20.358,5.438,29.96,9.715l14.729-33.073 C388.897,70.667,376.377,66.606,363.611,63.913z"/> </g> </g> <g> <g> <path d="M437.185,347.623c-7.038,7.838-14.911,14.96-23.401,21.169l21.372,29.223c10.51-7.686,20.256-16.502,28.966-26.201 L437.185,347.623z"/> </g> </g> <g> <g> <path d="M486.768,153.192l-31.3,18.196c5.294,9.104,9.632,18.774,12.896,28.745l34.409-11.262 C498.721,176.492,493.335,164.486,486.768,153.192z"/> </g> </g> <g> <g> <path d="M468.513,293.301c-3.231,9.984-7.539,19.67-12.803,28.791l31.358,18.097c6.529-11.318,11.878-23.341,15.889-35.737 L468.513,293.301z"/> </g> </g> <g> <g> <path d="M510.956,227.115l-36.002,3.816c0.559,5.287,0.844,10.676,0.841,16.018c0,5.182-0.267,10.405-0.792,15.524l36.016,3.7 c0.65-6.345,0.981-12.813,0.981-19.222C512.002,240.341,511.651,233.667,510.956,227.115z"/> </g> </g> <g> <g> <path d="M185.901,121.935c-8.73,9.703-16.462,20.335-22.98,31.601l31.337,18.13c5.261-9.093,11.503-17.677,18.556-25.515 L185.901,121.935z"/> </g> </g> <g> <g> <path d="M248.691,76.145c-11.879,5.322-23.249,11.923-33.795,19.618l21.34,29.246c8.509-6.209,17.681-11.534,27.26-15.825 L248.691,76.145z"/> </g> </g> <g> <g> <path d="M324.74,59.893c-13.084,0.015-26.159,1.395-38.863,4.104l7.552,35.408c10.239-2.183,20.786-3.296,31.351-3.308 L324.74,59.893z"/> </g> </g> <g> <g> <path d="M439.591,246.949c0-63.217-51.431-114.648-114.648-114.648c-42.385,0-79.47,23.121-99.309,57.412 c-8.513-2.024-17.385-3.105-26.509-3.105c-57.058,0-104.515,41.9-113.22,96.545h-1.428C37.896,283.154,0,321.049,0,367.631 s37.896,84.477,84.477,84.477h229.296c46.582,0,84.477-37.895,84.477-84.477c0-10.055-1.774-19.701-5.011-28.654 C421.347,318.064,439.591,284.597,439.591,246.949z M313.773,415.904H84.477c-26.618,0-48.273-21.655-48.273-48.273 c0-26.618,21.655-48.273,48.273-48.273h36.205v-18.102c0-43.254,35.19-78.443,78.443-78.443c43.254,0,78.443,35.19,78.443,78.443 v18.102h36.205c26.618,0,48.273,21.655,48.273,48.273C362.046,394.249,340.39,415.904,313.773,415.904z M373.795,308.257 c-15.321-15.488-36.568-25.103-60.022-25.103h-1.428c-5.329-33.455-25.197-62.111-52.886-79.322 c14.047-21.262,38.149-35.326,65.484-35.326c43.254,0,78.443,35.19,78.443,78.443C403.386,271.742,391.81,293.871,373.795,308.257 z"/> </g> </g> </g>
</svg>