<!DOCTYPE svg PUBLIC "-//W3C//DTD SVG 1.1//EN" "http://www.w3.org/Graphics/SVG/1.1/DTD/svg11.dtd">

<!-- Uploaded to: SVG Repo, www.svgrepo.com, Transformed by: SVG Repo Mixer Tools -->
<svg height="40px" width="40px" version="1.1" id="Layer_1" xmlns="http://www.w3.org/2000/svg" xmlns:xlink="http://www.w3.org/1999/xlink" viewBox="0 0 512.001 512.001" xml:space="preserve" fill="#000000">

<g id="SVGRepo_bgCarrier" stroke-width="0"/>

<g id="SVGRepo_tracerCarrier" stroke-linecap="round" stroke-linejoin="round"/>

<g id="SVGRepo_iconCarrier"> <path style="fill:#E09B2D;" d="M403.059,263.076l-27.947,59.636h22.234l-51.988,87.933l4.477-73.779h-31.328l23.248-72.776v-1.014 C364.503,263.076,385.512,263.076,403.059,263.076z"/> <path style="fill:#F7B239;" d="M229.338,264.627l35.642,111.578h-48.047l37.204,113.14L144.099,354.518h34.091l-71.284-91.443 c25.755,0,71.96,0,122.432,0L229.338,264.627L229.338,264.627z"/> <path style="fill:#666666;" d="M456.808,163.833c25.93,1.667,46.45,23.213,46.45,49.563c0,27.446-22.246,49.68-49.68,49.68 c-3.416,0-22.584,0-50.519,0c-17.547,0-38.557,0-61.304,0c-35.444,0-75.096,0-112.417,0c-50.472,0-96.677,0-122.432,0 c-10.621,0-17.769,0-20.299,0c-43.011,0-77.86-34.849-77.86-77.86c0-42.999,34.849-77.848,77.86-77.848 c2.378,0,4.734,0.117,7.054,0.326c15.052-49.225,60.826-85.03,114.971-85.03c43.733,0,81.999,23.353,103.032,58.261 c14.131-7.986,30.442-12.569,47.837-12.569C412.632,68.357,455.805,110.936,456.808,163.833z"/> <path style="fill:#4D4D4D;" d="M57.716,203.871c0-42.999,34.849-77.848,77.86-77.848c2.378,0,4.734,0.117,7.054,0.326 c15.052-49.225,60.826-85.03,114.971-85.03c5.874,0,11.644,0.435,17.292,1.249c-18.995-12.576-41.769-19.903-66.26-19.903 c-54.145,0-99.919,35.805-114.971,85.03c-2.32-0.21-4.675-0.326-7.054-0.326c-43.011,0-77.86,34.849-77.86,77.848 c0,42.466,33.978,76.951,76.237,77.819C68.301,248.756,57.716,227.56,57.716,203.871z"/> <g> <path style="fill:#FFFFFF;" d="M427.664,173.13c-4.752,0-8.649-3.807-8.74-8.579c-0.296-15.636-6.611-30.292-17.78-41.267 c-0.863-0.848-1.765-1.682-2.683-2.483c-3.641-3.172-4.021-8.695-0.849-12.338c3.171-3.642,8.697-4.02,12.337-0.849 c1.182,1.03,2.344,2.104,3.453,3.196c14.453,14.201,22.622,33.169,23.007,53.408c0.091,4.828-3.748,8.818-8.576,8.909 C427.776,173.13,427.72,173.13,427.664,173.13z"/> <path style="fill:#FFFFFF;" d="M292.757,114.757c-2.965,0-5.855-1.509-7.498-4.233l-6.05-10.042 c-11.185-18.561-28.711-31.772-49.351-37.201c-4.671-1.228-7.461-6.01-6.233-10.681c1.228-4.671,6.008-7.462,10.68-6.233 c25.069,6.592,46.336,22.605,59.882,45.088l6.05,10.042c2.493,4.137,1.16,9.51-2.978,12.003 C295.849,114.351,294.294,114.757,292.757,114.757z"/> <path style="fill:#FFFFFF;" d="M261.24,183.345c-2.567,0-5.111-1.125-6.837-3.287c-5.142-6.436-12.787-10.127-20.972-10.127 c-2.635,0-5.235,0.382-7.73,1.136c-4.626,1.394-9.503-1.221-10.899-5.844c-1.396-4.623,1.221-9.502,5.844-10.899 c4.135-1.249,8.437-1.882,12.785-1.882c13.533,0,26.158,6.087,34.636,16.699c3.015,3.773,2.399,9.276-1.373,12.29 C265.081,182.719,263.155,183.345,261.24,183.345z"/> <path style="fill:#FFFFFF;" d="M316.468,195.936c-4.83,0-8.744-3.915-8.744-8.744c0-0.337-0.262-0.611-0.583-0.611 c-4.83,0-8.744-3.915-8.744-8.744s3.914-8.744,8.744-8.744c9.965,0,18.072,8.119,18.072,18.1 C325.213,192.022,321.297,195.936,316.468,195.936z"/> </g> <g> <path style="fill:#333333;" d="M465.148,156.136c-2.235-25.06-13.193-48.306-31.314-66.114 c-19.953-19.611-46.354-30.41-74.336-30.41c-15.488,0-30.816,3.413-44.79,9.923C303.846,53.86,289.57,40.68,273.036,31.128 c-19.496-11.262-41.764-17.214-64.4-17.214c-28.175,0-54.941,8.926-77.405,25.813c-19.874,14.942-35.22,35.668-43.737,58.896 c-0.298-0.003-0.596-0.005-0.892-0.005C38.849,98.619,0,137.469,0,185.221s38.849,86.603,86.602,86.603h16.035l57.653,73.946 h-16.189c-3.376,0-6.451,1.944-7.899,4.995c-1.448,3.051-1.01,6.662,1.125,9.278L247.358,494.87 c1.709,2.095,4.222,3.217,6.779,3.217c1.429,0,2.872-0.35,4.196-1.075c3.696-2.024,5.423-6.397,4.106-10.4l-33.421-101.655h35.963 c2.792,0,5.416-1.333,7.062-3.587c1.646-2.254,2.117-5.159,1.268-7.819l-32.495-101.726h89.288l-19.927,62.377 c-0.85,2.659-0.378,5.564,1.269,7.819c1.646,2.255,4.27,3.588,7.062,3.588h22.04l-3.92,64.509 c-0.245,4.032,2.305,7.708,6.167,8.891c0.848,0.26,1.71,0.385,2.561,0.385c3.029,0,5.923-1.581,7.527-4.295l51.988-87.933 c1.598-2.703,1.624-6.056,0.069-8.783c-1.556-2.728-4.455-4.412-7.596-4.412h-8.477l19.758-42.144h44.953 c32.215,0,58.424-26.209,58.424-58.424C512,185.338,491.968,161.541,465.148,156.136z M253.008,367.466h-36.069 c-2.804,0-5.439,1.345-7.083,3.617c-1.644,2.271-2.1,5.194-1.224,7.858l22.471,68.352l-68.579-84.034h15.671 c3.341,0,6.39-1.905,7.857-4.907c1.467-3.002,1.094-6.578-0.961-9.214l-60.279-77.314h97.644L253.008,367.466z M367.19,319 c-1.27,2.708-1.067,5.879,0.539,8.403c1.604,2.524,4.389,4.054,7.379,4.054h6.908l-25.732,43.524l2.284-37.587 c0.146-2.406-0.708-4.767-2.36-6.523c-1.652-1.756-3.957-2.752-6.368-2.752h-19.359l17.984-56.295h40.844L367.19,319z M453.575,254.335H86.602c-38.109,0-69.113-31.004-69.113-69.114s31.004-69.114,69.113-69.114c1.993,0,4.048,0.098,6.282,0.298 c4.113,0.371,7.938-2.197,9.147-6.154c6.826-22.345,20.93-42.426,39.711-56.544c19.408-14.591,42.539-22.304,66.894-22.304 c39.438,0,75.156,20.199,95.542,54.035c2.444,4.055,7.671,5.431,11.793,3.099c13.234-7.482,28.286-11.438,43.527-11.438 c23.368,0,45.415,9.018,62.078,25.395c16.64,16.354,26.05,38.198,26.493,61.507c0.086,4.547,3.643,8.269,8.182,8.56 c21.454,1.38,38.261,19.318,38.261,40.837C494.511,235.971,476.148,254.335,453.575,254.335z"/> <path style="fill:#333333;" d="M307.136,139.949c-7.583,0-14.888,1.764-21.496,5.154c-13.757-13.942-32.393-21.804-52.213-21.804 c-40.496,0-73.441,32.951-73.441,73.452c0,11.92,2.928,23.759,8.465,34.236c1.568,2.967,4.601,4.66,7.739,4.66 c1.378,0,2.775-0.326,4.078-1.016c4.27-2.257,5.902-7.547,3.645-11.817c-4.211-7.969-6.437-16.982-6.437-26.064 c0-30.858,25.1-55.964,55.952-55.964c17.098,0,33.042,7.683,43.746,21.081c2.952,3.696,8.306,4.373,12.088,1.531 c5.185-3.9,11.365-5.962,17.875-5.962c16.394,0,29.731,13.332,29.731,29.719v0.119c-0.242,4.781,3.411,8.876,8.201,9.169 c4.813,0.3,8.965-3.375,9.26-8.196c0.022-0.365,0.027-0.729,0.027-1.092C354.356,161.126,333.173,139.949,307.136,139.949z"/> </g> <circle style="fill:#FFFFFF;" cx="379.131" cy="100.362" r="8.744"/> </g>

</svg>